# xmcd CD database file
#
# Track frame offsets:
#	150
#	22142
#	59976
#	84010
#	117278
#	147768
#	162994
#	191055
#	209627
#	237548
#
# Disc length: 3289 seconds
#
# Revision: 0
# Processed by: cddbd v1.5.2PL0 Copyright (c) Steve Scherf et al.
# Submitted via: CDex 1.70beta2
#
DISCID=960cd70a
DTITLE=Scott Colley - Empire
DYEAR=2009
DGENRE=Jazz
TTITLE0=January
TTITLE1=The Gettin Place
TTITLE2=For Sophia
TTITLE3=5:30 am
TTITLE4=Speculation
TTITLE5=Tomorrowland
TTITLE6=Now what?
TTITLE7=Gut
TTITLE8=Five-two
TTITLE9=Five-two.2
EXTD=YEAR: 2009
EXTT0=
EXTT1=
EXTT2=
EXTT3=
EXTT4=
EXTT5=
EXTT6=
EXTT7=
EXTT8=
EXTT9=
PLAYORDER=
